<?xml version="1.0" encoding="utf-8"?><svg viewBox="0 0 154 145" xmlns="http://www.w3.org/2000/svg" xmlns:xlink="http://www.w3.org/1999/xlink"><style>:root>svg{display:none}:root>svg:target{display:block}</style><svg viewBox="0 0 28 16" id="footer--arrow" xmlns="http://www.w3.org/2000/svg"><path d="M2 14L13.293 2.707a1 1 0 011.414 0L26 14"/></svg><svg viewBox="0 0 30 22" id="header--eye" xmlns="http://www.w3.org/2000/svg"><path fill-rule="evenodd" clip-rule="evenodd" d="M4.393.296a.994.994 0 011.415 0l3.53 3.562c1.909-.604 3.855-.932 5.662-.932 4.936 0 10.917 2.444 14.325 6.294.9 1.016.9 2.544 0 3.56-1.705 1.927-4.055 3.501-6.595 4.594l2.877 2.903c.39.394.39 1.033 0 1.427a.994.994 0 01-1.415 0L4.393 1.723a1.016 1.016 0 010-1.427zm8.575 7.226L11.52 6.06a5.932 5.932 0 013.033-1.108 13.518 13.518 0 01.896 0C18.545 5.184 21 7.795 21 11c0 1.31-.41 2.521-1.107 3.511l-1.447-1.46C18.797 12.45 19 11.747 19 11c0-2.23-1.791-4.037-4-4.037-.742 0-1.437.204-2.032.56zm1.514 1.528l2.45 2.473c.044-.167.068-.342.068-.523a2.01 2.01 0 00-2-2.018c-.18 0-.353.023-.518.068zM5.457 5.507C3.625 6.506 1.965 7.762.675 9.22a2.686 2.686 0 000 3.56c3.408 3.85 9.389 6.294 14.325 6.294 1.135 0 2.326-.13 3.528-.375l-1.856-1.873c-.392.115-.801.19-1.222.222a13.363 13.363 0 01-.9 0C11.453 16.815 9 14.204 9 11c0-.584.081-1.148.233-1.681l-1.556-1.57A8.092 8.092 0 007 11c0 1.753.556 3.378 1.5 4.703-2.457-.987-4.743-2.466-6.34-4.27a.65.65 0 010-.866c1.252-1.415 2.929-2.63 4.779-3.564L5.457 5.507zM23 11a8.075 8.075 0 00-1.5-4.703c2.457.987 4.743 2.466 6.34 4.27a.649.649 0 010 .866c-1.596 1.804-3.883 3.283-6.34 4.27A8.074 8.074 0 0023 11z"/></svg><svg viewBox="0 0 15 15" id="header--search" xmlns="http://www.w3.org/2000/svg"><path d="M5.625 1.5A4.113 4.113 0 019.75 5.625c0 .9-.3 1.763-.863 2.512l-.337.45-.45.338a4.175 4.175 0 01-2.475.825A4.113 4.113 0 011.5 5.625 4.113 4.113 0 015.625 1.5zm0-1.5A5.617 5.617 0 000 5.625a5.617 5.617 0 005.625 5.625c1.275 0 2.475-.45 3.412-1.162L13.95 15 15 13.95l-4.912-4.912a5.676 5.676 0 001.162-3.413A5.617 5.617 0 005.625 0z"/></svg><svg viewBox="0 0 29 30" id="recall--call" xmlns="http://www.w3.org/2000/svg"><path fill-rule="evenodd" clip-rule="evenodd" d="M9.971 2.467C8.766.89 7.445 0 5.965 0 4.702 0 3.687.66 2.961 1.268l-.027.024-.027.024A57.362 57.362 0 001.161 3.01C.306 3.858.01 5.105.001 6.34c-.01 1.274.28 2.759.84 4.352 1.125 3.195 3.408 7.017 7.008 10.801 2.755 2.896 5.557 5.008 8.11 6.402 2.526 1.38 4.898 2.106 6.78 2.106 1.146 0 2.31-.274 3.13-1.074l.009-.01.009-.009c.295-.3.57-.56.86-.835.215-.203.439-.414.686-.657l.028-.027.026-.03c.683-.749 1.489-1.835 1.513-3.234.024-1.46-.797-2.804-2.295-4.072l-.002-.001c-1.647-1.391-3.077-2.166-4.466-2.166-1.148 0-2.006.527-2.663 1.073l-.034.028-.032.03-.334.312c-.253.235-.53.493-.79.753a2.2 2.2 0 01-.566-.217c-.364-.186-.797-.472-1.286-.853-.979-.763-2.065-1.811-3.112-2.916l-.003-.003c-1.28-1.343-2.46-2.724-3.167-3.872-.36-.583-.535-1.009-.588-1.277a1.144 1.144 0 01-.012-.075l.234-.236c.31-.312.625-.63.936-.95l.034-.037.033-.038c.635-.76 1.175-1.745 1.04-3.085-.124-1.226-.798-2.534-1.954-4.053l-.002-.002zm-.325 8.336v.006a.03.03 0 000-.006zM7.812 4.125c1.061 1.394 1.363 2.207 1.41 2.672.034.34-.052.61-.389 1.022-.286.294-.573.584-.867.88l-.315.318c-.743.734-.806 1.691-.656 2.453.145.74.516 1.493.942 2.184.862 1.4 2.204 2.947 3.514 4.321 1.085 1.145 2.279 2.306 3.413 3.19.568.442 1.15.838 1.72 1.13.552.281 1.202.522 1.877.522.604 0 1.223-.197 1.722-.683l.012-.012.013-.013c.245-.25.488-.477.757-.727l.375-.35c.41-.335.66-.42.896-.42.385 0 1.178.227 2.716 1.525 1.195 1.012 1.334 1.646 1.33 1.94-.007.351-.213.79-.777 1.415-.168.164-.36.346-.56.535-.326.31-.674.642-.979.95-.112.105-.45.296-1.228.296-1.259 0-3.172-.514-5.48-1.774-2.281-1.247-4.862-3.178-7.442-5.89-3.38-3.552-5.434-7.051-6.411-9.826-.49-1.392-.693-2.555-.686-3.423.007-.906.233-1.292.354-1.41l.008-.008.007-.008A54.506 54.506 0 014.73 3.34c.553-.458.941-.613 1.235-.613.269 0 .884.138 1.847 1.398z"/></svg><svg viewBox="0 0 30 21" id="recall--mail" xmlns="http://www.w3.org/2000/svg"><path fill-rule="evenodd" clip-rule="evenodd" d="M0 5A4.5 4.5 0 014.5.5h21A4.5 4.5 0 0130 5v11a4.5 4.5 0 01-4.5 4.5h-21A4.5 4.5 0 010 16V5zm6.292-1.5l7.934 4.782a1.5 1.5 0 001.548 0L23.708 3.5H6.292zM27 5.019l-9.677 5.832a4.5 4.5 0 01-4.646 0L3 5.02V16a1.5 1.5 0 001.5 1.5h21A1.5 1.5 0 0027 16V5.019z"/></svg><svg viewBox="0 0 154 145" id="reviews--star" xmlns="http://www.w3.org/2000/svg"><path d="M77 0l17.961 55.279h58.124l-47.023 34.164 17.961 55.278L77 110.557l-47.023 34.164 17.961-55.278L.915 55.279H59.04L77 0z"/></svg></svg>